<svg width="123" height="128" viewBox="0 0 123 128" fill="none" xmlns="http://www.w3.org/2000/svg">
<line x1="61.5" x2="61.5" y2="101.005" stroke="#31C48D" stroke-width="3"/>
<path d="M60 101C60 93.8392 63.3187 86.9716 69.2261 81.9081C75.1335 76.8446 83.1457 74 91.5 74L91.5 76.7C83.9811 76.7 76.7702 79.2602 71.4535 83.8173C66.1369 88.3744 63.15 94.5552 63.15 101L60 101Z" fill="#31C48D"/>
<path d="M31.5 74C39.8543 74 47.8665 76.8446 53.7739 81.9081C59.6813 86.9716 63 93.8391 63 101L59.85 101C59.85 94.5552 56.8631 88.3744 51.5465 83.8173C46.2298 79.2602 39.0189 76.7 31.5 76.7L31.5 74Z" fill="#31C48D"/>
</svg>
